# xmcd
#
# Track frame offsets:
#	150
#	11664
#	25119
#	39485
#	51114
#	60898
#	70011
#	79338
#	90473
#	102917
#	111635
#	123844
#	141367
#	154050
#	168700
#	184462
#	199033
#	208071
#	220935
#	235312
#	245750
#	255825
#	268501
#	281498
#
# Disc length: 3908 seconds
#
# Revision: 1
# Processed by: cddbd v1.5.2PL0 Copyright (c) Steve Scherf et al.
# Submitted via: audiograbber 1.83.01
#
DISCID=5a0f4218
DTITLE=Various Artist - Northern Soul's Classiest Rarities, CD 5
DYEAR=2015
DGENRE=Soul
TTITLE0=The Avons - When The Boy That You Love (Is Loving You)
TTITLE1=Marva Holiday - Hang Around
TTITLE2=The Volumes - That Same Old Feeling
TTITLE3=The Steelers - Just Beginning To Love You
TTITLE4=Clifford Curry - I Can't Get Hold Of Myself
TTITLE5=Mary Saxton - Losing Control
TTITLE6=Terri Goodnight - They Didn't Know
TTITLE7=Mousie and The Traps - It's All In The Way
TTITLE8=J. J. Barnes - It's Alright To Cry Sometime
TTITLE9=Roy Wright - Hook Line And Sinker
TTITLE10=The Soul Brothers - Lover Man
TTITLE11=Darondo Pulliam - How I Got Over
TTITLE12=Mel Davis - Just Another Smile
TTITLE13=The Webb People - I'm Sending Vibrations
TTITLE14=The Ballads - Butterfly (aka I Wish I Knew)
TTITLE15=The Millionaires - It Ain't No Achievement
TTITLE16=Big Joe Turner - Two Loves Have I
TTITLE17=Ray and Dave - Wrong, Wrong, Wrong
TTITLE18=Eddy Giles - Pins And Needles
TTITLE19=Cleo Jackson (Huck and The Soul Patrol) - I'm The Reason
TTITLE20=The Dialtones - If You Don't Know, You Just Don't Know
TTITLE21=Little Johnny Hamilton - Do The Popcorn
TTITLE22=Jeanette Jones - Break Someone Else's Heart
TTITLE23=Jesse Cowan - This Man Wants You
EXTD=
EXTT0=
EXTT1=
EXTT2=
EXTT3=
EXTT4=
EXTT5=
EXTT6=
EXTT7=
EXTT8=
EXTT9=
EXTT10=
EXTT11=
EXTT12=
EXTT13=
EXTT14=
EXTT15=
EXTT16=
EXTT17=
EXTT18=
EXTT19=
EXTT20=
EXTT21=
EXTT22=
EXTT23=
PLAYORDER=
